HIERARCHY
ROOT SimulationBone
{
	OFFSET 0.000000 0.000000 0.000000
	CHANNELS 6 Xposition Yposition Zposition Zrotation Yrotation Xrotation 
	JOINT Hips
	{
		OFFSET 0.000000 0.000000 0.000000
		CHANNELS 6 Xposition Yposition Zposition Zrotation Yrotation Xrotation 
		JOINT RightUpLeg
		{
			OFFSET 0.103462 1.857831 10.548502
			CHANNELS 3 Zrotation Yrotation Xrotation
			JOINT RightLeg
			{
				OFFSET 43.500008 -0.000027 -0.000004
				CHANNELS 3 Zrotation Yrotation Xrotation
				JOINT RightFoot
				{
					OFFSET 42.372200 0.000011 -0.000002
					CHANNELS 3 Zrotation Yrotation Xrotation
					JOINT RightToe
					{
						OFFSET 17.299999 -0.000001 -0.000002
						CHANNELS 3 Zrotation Yrotation Xrotation
						End Site
						{
							OFFSET 0.000000 0.000000 0.000000
						}
					}
				}
			}
		}
		JOINT LeftUpLeg
		{
			OFFSET 0.103458 1.857828 -10.548501
			CHANNELS 3 Zrotation Yrotation Xrotation
			JOINT LeftLeg
			{
				OFFSET 43.500038 -0.000031 0.000011
				CHANNELS 3 Zrotation Yrotation Xrotation
				JOINT LeftFoot
				{
					OFFSET 42.372257 -0.000004 0.000010
					CHANNELS 3 Zrotation Yrotation Xrotation
					JOINT LeftToe
					{
						OFFSET 17.299994 -0.000005 0.000004
						CHANNELS 3 Zrotation Yrotation Xrotation
						End Site
						{
							OFFSET 0.000000 0.000000 0.000000
						}
					}
				}
			}
		}
		JOINT Spine
		{
			OFFSET 6.901966 -2.603733 0.000000
			CHANNELS 3 Zrotation Yrotation Xrotation
			JOINT Spine1
			{
				OFFSET 12.588101 0.000002 0.000000
				CHANNELS 3 Zrotation Yrotation Xrotation
				JOINT Spine2
				{
					OFFSET 12.343201 0.000004 -0.000002
					CHANNELS 3 Zrotation Yrotation Xrotation
					JOINT Neck
					{
						OFFSET 25.832895 -0.000004 0.000002
						CHANNELS 3 Zrotation Yrotation Xrotation
						JOINT Head
						{
							OFFSET 11.766604 0.000011 0.000001
							CHANNELS 3 Zrotation Yrotation Xrotation
							End Site
							{
								OFFSET 0.000000 0.000000 0.000000
							}
						}
					}
					JOINT RightShoulder
					{
						OFFSET 19.745903 -1.480368 6.000108
						CHANNELS 3 Zrotation Yrotation Xrotation
						JOINT RightArm
						{
							OFFSET 11.284126 -0.000007 -0.000022
							CHANNELS 3 Zrotation Yrotation Xrotation
							JOINT RightForeArm
							{
								OFFSET 33.000053 0.000001 0.000028
								CHANNELS 3 Zrotation Yrotation Xrotation
								JOINT RightHand
								{
									OFFSET 25.200005 0.000019 0.000013
									CHANNELS 3 Zrotation Yrotation Xrotation
									End Site
									{
										OFFSET 0.000000 0.000000 0.000000
									}
								}
							}
						}
					}
					JOINT LeftShoulder
					{
						OFFSET 19.746094 -1.480373 -6.000072
						CHANNELS 3 Zrotation Yrotation Xrotation
						JOINT LeftArm
						{
							OFFSET 11.284138 -0.000017 -0.000010
							CHANNELS 3 Zrotation Yrotation Xrotation
							JOINT LeftForeArm
							{
								OFFSET 33.000092 0.000013 0.000009
								CHANNELS 3 Zrotation Yrotation Xrotation
								JOINT LeftHand
								{
									OFFSET 25.199776 0.000139 0.000415
									CHANNELS 3 Zrotation Yrotation Xrotation
									End Site
									{
										OFFSET 0.000000 0.000000 0.000000
									}
								}
							}
						}
					}
				}
			}
		}
	}
}
MOTION
Frames: 5
Frame Time: 0.033333
-255.389358 0.000000 -7.938458 0.000000 171.078595 0.000000 0.730593 85.600433 -2.279391 95.839967 -5.484124 164.843476 156.559574 3.391009 -176.110567 -32.237724 -4.861832 3.054995 72.905439 -2.188570 -0.431194 21.454558 0.003105 0.000017 -179.317095 2.450395 178.251886 -55.687762 2.643843 0.900054 70.309332 -0.226032 1.359733 21.454555 -0.003094 0.000000 8.594670 -1.666611 1.353096 7.140849 -3.413223 2.602107 6.822509 -3.397589 2.622666 -19.561214 0.747576 2.331483 -12.122288 -7.685828 5.014203 -150.750294 -68.561774 -31.556215 2.393663 39.596437 40.609894 -40.454104 -15.577630 1.535407 6.798947 10.164726 24.495961 140.618951 84.701982 -38.013250 -5.314297 -66.930239 -14.708068 -129.683695 0.550335 -4.020827 -15.812472 7.184411 -43.144939 
-258.071581 0.000000 -9.446665 0.000000 166.151378 0.000000 1.473216 84.255577 -2.602020 98.452595 -6.701352 169.430945 158.198287 5.586108 -176.285311 -39.858327 -3.929301 2.627113 79.047507 -1.904251 -0.571606 21.454558 0.003109 0.000017 177.312367 5.269301 -178.740641 -69.756886 0.567486 -1.515628 65.015908 3.508249 5.982980 21.454550 -0.003093 -0.000002 9.098333 -1.948811 0.869963 8.160982 -3.953916 1.601341 7.842206 -3.944317 1.625214 -19.624062 2.081607 2.260417 -13.024600 -7.883102 5.547130 -154.477774 -68.618874 -27.705814 -6.133219 40.154884 33.980027 -37.787864 -15.174278 1.440280 7.052435 8.688965 25.317459 158.075480 84.305086 -20.468863 0.846245 -67.727903 -20.983419 -132.438693 0.696062 -4.130605 -20.023439 10.031683 -43.974319 
-260.744164 0.000000 -11.027030 0.000000 161.387184 0.000000 1.965429 83.553650 -2.815147 100.748712 -7.545337 172.628461 161.735410 5.663187 -175.949102 -43.646152 -4.961519 2.198194 83.616856 -1.506643 -0.412652 21.454557 0.003102 0.000017 173.716436 6.905895 -177.834616 -79.690337 -1.077687 -1.094256 61.988345 3.425231 5.936587 21.454550 -0.003092 -0.000005 9.615539 -2.190809 0.531175 9.207914 -4.416774 0.886896 8.888834 -4.411472 0.913598 -18.872542 3.147242 2.582771 -15.425958 -7.696023 6.353820 -159.342767 -68.431064 -22.682507 -15.817079 40.030362 27.873421 -33.164052 -14.906869 1.315108 7.624857 6.502952 23.423230 175.093648 82.272135 -3.363426 6.977220 -66.852321 -26.232967 -130.893308 0.917716 -4.090467 -22.630029 11.550680 -45.278297 
-263.401479 0.000000 -12.675756 0.000000 156.791197 0.000000 2.078778 83.587463 -2.771893 101.621460 -7.922275 175.449530 165.430242 4.334398 -177.393837 -44.479141 -5.169640 2.695603 86.614360 -1.809735 -0.322630 21.454558 0.003105 0.000017 168.950316 6.887101 -177.918846 -85.300812 -1.967642 1.135370 65.394348 1.256931 5.074904 21.454558 -0.003089 0.000000 9.737053 -2.219946 -0.003683 9.471973 -4.432003 -0.189320 9.152850 -4.433202 -0.162509 -17.550151 3.945446 3.750156 -16.817987 -8.189262 8.044353 -162.074542 -68.996802 -19.851511 -23.691952 41.202484 20.722265 -29.827354 -14.270285 1.205737 8.764861 5.854860 22.676201 -173.243841 80.571138 8.426526 11.728897 -65.765371 -29.633530 -123.883116 1.184767 -3.844358 -21.510250 10.293917 -48.643528 
-266.037898 0.000000 -14.389046 0.000000 152.360048 0.000000 2.083539 84.518501 -2.677696 100.946063 -8.050160 178.797891 169.133679 3.183103 -176.450014 -41.906875 -5.889020 2.073673 87.680935 -1.411919 -0.676631 21.454557 0.003106 0.000016 163.697573 6.468599 -177.282560 -85.946251 -2.485678 3.602293 66.607219 -0.479310 5.430638 21.454557 -0.003087 -0.000002 9.387387 -2.118746 -0.837475 8.801154 -4.167604 -1.834863 8.482330 -4.178744 -1.809637 -15.995538 6.242301 4.891304 -16.354535 -10.242470 10.570003 -165.391501 -70.004644 -16.418098 -27.888089 42.387334 15.758932 -30.581448 -13.772956 1.188487 9.504987 4.663519 24.401710 -168.067186 79.293783 13.681709 15.128801 -64.966649 -32.940985 -113.666109 2.291754 -3.504480 -11.709799 5.404814 -58.795505 
